# xmcd
#
# Track frame offsets:
#	150
#	14174
#	38118
#	46420
#	61501
#	67122
#	87799
#	97043
#	105931
#	130963
#	136975
#	140244
#	158077
#	169029
#
# Disc length: 2466 seconds
#
# Revision: 1
# Processed by: cddbd v1.5.1PL0 Copyright (c) Steve Scherf et al.
# Submitted via: audiograbber 1.83.01
#
DISCID=bf09a00e
DTITLE=Murphy, Fred - I Heard a Little Rumblin'
DYEAR=1900
DGENRE=Blues
TTITLE0=You Are My Sunshine
TTITLE1=Foolln' Away My Time
TTITLE2=Brownsville Blues
TTITLE3=Good Mornin', Little School Girl
TTITLE4=Up North, Down South
TTITLE5=Nary A Night By Myself
TTITLE6=Do The Boogie Woogie
TTITLE7=I Got a Girl Across the Bottoms
TTITLE8=Angel of Mercy
TTITLE9=Baby, Please Don't Go
TTITLE10=Big Jim
TTITLE11=Fred's Kansas City Blues
TTITLE12=I Heard A Little Rumblin'
TTITLE13=Trouble In Mind
EXTD=
EXTT0=
EXTT1=
EXTT2=
EXTT3=
EXTT4=
EXTT5=
EXTT6=
EXTT7=
EXTT8=
EXTT9=
EXTT10=
EXTT11=
EXTT12=
EXTT13=
PLAYORDER=
